Coordinates
version=1
nRows=7
nColumns=40
inDegrees=yes

Units are S.I. units (second, meters, Newtons, ...)
Angles are in degrees.

endheader
time	pelvis_tilt	pelvis_list	pelvis_rotation	pelvis_tx	pelvis_ty	pelvis_tz	hip_flexion_r	hip_adduction_r	hip_rotation_r	knee_angle_r	knee_angle_r_beta	ankle_angle_r	subtalar_angle_r	mtp_angle_r	hip_flexion_l	hip_adduction_l	hip_rotation_l	knee_angle_l	knee_angle_l_beta	ankle_angle_l	subtalar_angle_l	mtp_angle_l	lumbar_extension	lumbar_bending	lumbar_rotation	arm_flex_r	arm_add_r	arm_rot_r	elbow_flex_r	pro_sup_r	wrist_flex_r	wrist_dev_r	arm_flex_l	arm_add_l	arm_rot_l	elbow_flex_l	pro_sup_l	wrist_flex_l	wrist_dev_l
     48.50500000	     -3.68908959	     -2.03986363	     -3.66176878	      1.12391623	      0.91897049	      0.42876339	     29.93344578	     -4.01239007	    -14.62916462	     11.43973704	     11.43973704	      3.98237916	      6.68601034	     14.52936780	     -2.91737601	     -1.48580239	    -14.85041637	     10.99102762	     10.99102762	     19.06253787	     -0.17482946	     -8.32302603	    -10.14089817	      3.72917890	      3.13426973	    -13.67626317	    -11.92796187	    -16.31512906	     17.90524852	     47.71966294	      0.00000000	      0.00000000	     34.31190565	    -20.37910957	     -2.96767437	     65.02040397	     47.08366768	      0.00000000	      0.00000000
     48.51635714	     -3.68412161	     -1.99842348	     -3.58789519	      1.12558859	      0.91697650	      0.43059056	     29.72211729	     -3.70027503	    -14.83933559	     11.41408362	     11.41408362	      3.89349866	      6.55459724	     13.97402852	     -3.78743048	     -1.51922979	    -14.89111031	     10.82207358	     10.82207358	     19.62692913	      0.18852565	     -8.07708398	     -9.99568425	      3.70861373	      3.30409126	    -15.52012470	    -11.76362849	    -16.55805861	     17.99940589	     47.72222119	      0.00000000	      0.00000000	     34.33191569	    -20.40979305	     -3.44450760	     68.33562615	     47.17828094	      0.00000000	      0.00000000
     48.52771429	     -3.72968586	     -2.00336241	     -3.40099097	      1.12738497	      0.91491130	      0.43247755	     29.48308693	     -3.40215685	    -14.91777676	     11.55424219	     11.55424219	      2.93084979	      5.92963455	     11.26078004	     -4.42319387	     -1.71816890	    -15.04114116	     11.06239830	     11.06239830	     20.65590459	      0.95733151	     -7.09107711	     -9.80700287	      3.75971646	      2.47579474	    -17.05340595	    -11.74737970	    -16.88537121	     19.30808252	     47.67453006	      0.00000000	      0.00000000	     33.22485241	    -21.26865717	     -4.79367652	     72.75605938	     47.36622838	      0.00000000	      0.00000000
     48.53907143	     -3.82733161	     -2.08750370	     -3.12019980	      1.12916738	      0.91305790	      0.43432339	     29.28466602	     -3.16246129	    -15.19979793	     12.01685800	     12.01685800	      2.65953159	      5.53419174	     11.09958872	     -5.04993670	     -1.96695999	    -14.79198028	     11.10078882	     11.10078882	     21.00813192	      1.04742390	     -7.12618083	     -9.41775589	      3.94615940	      2.26419862	    -18.35008457	    -11.64762368	    -16.91730817	     18.87282254	     47.68279728	      0.00000000	      0.00000000	     33.70878353	    -21.45159388	     -4.99540487	     73.42013408	     47.39604077	      0.00000000	      0.00000000
     48.55042857	     -3.80686079	     -2.16053197	     -2.91820480	      1.13117721	      0.91114614	      0.43650236	     29.07104926	     -2.85482214	    -14.65066682	     12.72959822	     12.72959822	      0.65778414	      3.70211958	      5.81127633	     -5.58952369	     -2.35809344	    -15.10597336	     11.73783240	     11.73783240	     22.26664048	      2.02202043	     -5.67331165	     -9.42812255	      4.01573100	      2.16965915	    -20.12369063	    -11.42558619	    -17.06374603	     20.70352301	     47.56920375	      0.00000000	      0.00000000	     32.47289825	    -21.41912694	     -6.17087421	     79.04889678	     47.59385186	      0.00000000	      0.00000000
     48.56178571	     -3.84995607	     -2.29958714	     -2.62608114	      1.13325115	      0.90945037	      0.43860133	     28.88950443	     -2.62021768	    -14.43791403	     13.56735976	     13.56735976	     -0.98416118	      2.30199000	      1.67714485	     -6.03076073	     -2.82481951	    -15.11894511	     12.37280650	     12.37280650	     23.14520652	      2.54567860	     -4.74349937	     -9.20852363	      4.19262171	      2.05545318	    -21.39813188	    -11.25817405	    -16.63522508	     21.18070571	     47.46484055	      0.00000000	      0.00000000	     32.11711136	    -21.23173275	     -6.97263106	     81.68769152	     47.72634913	      0.00000000	      0.00000000
     48.57314286	     -3.91079416	     -2.47015451	     -2.31728934	      1.13525311	      0.90805752	      0.44075146	     28.85078870	     -2.43868243	    -14.22250970	     14.74697806	     14.74697806	     -2.03613233	      0.95380014	     -0.89947525	     -6.38094690	     -3.34329810	    -14.96667991	     13.08217028	     13.08217028	     23.67243507	      2.73540738	     -4.34632179	     -8.99445748	      4.41842689	      1.89843259	    -22.37628763	    -11.13210365	    -16.25633023	     21.63871067	     47.37217794	      0.00000000	      0.00000000	     31.55030043	    -21.11227307	     -7.59463577	     84.27766346	     47.84204086	      0.00000000	      0.00000000
